<?xml version="1.0" encoding="UTF-8"?> <svg xmlns="http://www.w3.org/2000/svg" clip-rule="evenodd" fill-rule="evenodd" stroke-linejoin="round" stroke-miterlimit="2" viewBox="0 0 1060 482"><path d="m235.362 481.414c-20.393 0-40.918-2.681-61.143-8.1-60.575-16.225-111.2-55.081-142.557-109.393-4.356-7.544-1.768-17.2 5.782-21.557l73.85-42.631c-26.625-61.8-3.294-135.337 56.375-169.781 31.137-17.988 67.425-22.769 102.156-13.456 34.744 9.306 63.769 31.587 81.75 62.731 2.094 3.625 2.656 7.931 1.581 11.981-1.087 4.038-3.731 7.481-7.362 9.575l-191.144 110.363c13.619 17.006 32.219 29.2 53.662 34.95 26.582 7.112 54.363 3.462 78.207-10.3 33.856-19.55 53.55-55.963 51.387-95.032-.481-8.7 6.194-16.15 14.894-16.631 8.6-.444 16.15 6.188 16.631 14.894 2.813 51.019-22.906 98.569-67.131 124.106-31.144 17.981-67.425 22.756-102.163 13.45-29.6-7.925-55.062-25.281-73.068-49.519l-59.663 34.444c27.369 40.013 67.663 68.638 114.981 81.313 52.432 14.05 107.194 6.831 154.2-20.3 47.007-27.138 80.632-70.957 94.675-123.388 14.05-52.425 6.844-107.187-20.293-154.2-56.032-97.037-180.557-130.4-277.588-74.375-82.031 47.363-120.319 143.7-93.112 234.275 2.506 8.35-2.232 17.144-10.575 19.65-8.35 2.525-17.15-2.219-19.663-10.569-31.431-104.668 12.794-215.975 107.569-270.687 112.094-64.731 255.969-26.188 320.7 85.925 31.356 54.306 39.681 117.575 23.456 178.144-16.231 60.581-55.075 111.212-109.381 142.562-36.175 20.881-76.331 31.55-117.013 31.556m-.55-337.981c-17.856 0-35.481 4.681-51.356 13.85-23.85 13.769-40.9 35.994-48.025 62.581-5.75 21.444-4.481 43.65 3.438 63.944l176.443-101.869c-13.618-17.012-32.218-29.206-53.65-34.95-8.881-2.381-17.893-3.556-26.85-3.556" fill="#c61530" fill-rule="nonzero"></path><g fill="#fff"><path d="m570.647 97.679c1.894 25.256 20 41.256 43.363 41.256 16.631 0 31.156-8.838 38.737-25.05h16.419c-10.531 25.262-30.1 38.944-54.737 38.944-33.888 0-58.725-28-58.725-59.782 0-33.681 23.993-59.581 59.356-59.581 33.475 0 57.687 25.269 57.687 63.163v1.05zm42.319-50.525c-21.481 0-38.319 14.318-41.9 38.312h85.681c-5.475-25.262-20.212-38.312-43.781-38.312" fill-rule="nonzero"></path><path d="m713.829 149.672-44.207-113.043h15.369l36.2 91.15 36.419-91.15h15.8l-46.319 113.043z" fill-rule="nonzero"></path><path d="m785.209 97.679c1.893 25.256 20 41.256 43.362 41.256 16.631 0 31.156-8.838 38.738-25.05h16.418c-10.531 25.262-30.1 38.944-54.737 38.944-33.888 0-58.725-28-58.725-59.782 0-33.681 23.994-59.581 59.356-59.581 33.481 0 57.688 25.269 57.688 63.163v1.05zm42.318-50.525c-21.475 0-38.318 14.318-41.9 38.312h85.682c-5.475-25.262-20.213-38.312-43.782-38.312" fill-rule="nonzero"></path><path d="m915.949 36.627v12.838c9.056-10.313 20.631-15.156 35.575-15.156 16.843 0 30.106 6.531 37.468 17.893 6.538 9.9 7.369 21.9 7.369 38.319v59.15h-14.312v-63.362c0-25.9-9.05-38.1-32.207-38.1-13.262 0-23.368 5.468-29.05 15.362-4.843 8.425-4.843 18.113-4.843 31.163v54.937h-14.107v-113.044z" fill-rule="nonzero"></path><path d="m1023.37 0v36.631h-21.475v14.519h21.475v98.525h14.525v-98.525h21.469v-14.519h-21.469v-36.631h-14.525z" fill-rule="nonzero"></path><path d="m577.865 321.407h14.525v149.675h-14.525z"></path><path d="m613.727 321.407h14.525v23.369h-14.525zm0 36.625h14.525v113.044h-14.525z" fill-rule="nonzero"></path><path d="m680.652 471.079-44.207-113.043h15.369l36.2 91.15 36.419-91.15h15.787l-46.306 113.043z" fill-rule="nonzero"></path><path d="m752.029 419.085c1.893 25.256 20 41.256 43.368 41.256 16.625 0 31.15-8.837 38.732-25.05h16.418c-10.525 25.263-30.1 38.944-54.737 38.944-33.888 0-58.725-28-58.725-59.781 0-33.682 23.994-59.582 59.356-59.582 33.475 0 57.688 25.263 57.688 63.163v1.05zm42.318-50.525c-21.475 0-38.318 14.319-41.9 38.319h85.682c-5.475-25.269-20.213-38.319-43.782-38.319" fill-rule="nonzero"></path><path d="m577.862 212.327h-21.475v-14.525h21.475v-36.631h14.525v36.631h21.475v14.525h-21.475v98.519h-14.525z" fill-rule="nonzero"></path><path d="m627.453 258.853c1.894 25.256 20 41.256 43.369 41.256 16.625 0 31.15-8.837 38.731-25.043h16.419c-10.525 25.256-30.1 38.937-54.738 38.937-33.887 0-58.725-27.994-58.725-59.781 0-33.681 23.994-59.581 59.369-59.581 33.462 0 57.675 25.268 57.675 63.162v1.05zm42.319-50.525c-21.475 0-38.319 14.319-41.9 38.313h85.681c-5.475-25.263-20.213-38.313-43.781-38.313" fill-rule="nonzero"></path><path d="m795.519 208.33c-22.737 0-41.894 19.369-41.894 46.1 0 26.106 18.525 45.681 42.525 45.681 17.05 0 31.369-8.631 38.525-24.625h16c-8.843 24.625-28.418 38.525-53.893 38.525-33.682 0-58.313-27.581-58.313-59.369 0-33.475 26.106-60 58.738-60 24.206 0 43.993 13.475 53.468 37.9h-16c-8.843-16.212-21.262-24.212-39.156-24.212" fill-rule="nonzero"></path><path d="m880.937 161.173v49.894c8.206-10.106 20-15.581 34.737-15.581 33.469 0 45.675 19.156 45.675 57.887v57.475h-14.312v-57.681c0-28.631-6.107-43.788-32.207-43.788-13.262 0-23.368 5.475-29.05 15.369-4.843 8.425-4.843 18.1-4.843 31.15v54.95h-14.313v-149.675z" fill-rule="nonzero"></path></g></svg> 